#!OML:ASF X:\für Bonn\!DataBase\2005_08_10_Bjorn_Final\c3d\bjorn.ASF
:FULLY-SPECIFIED
:DEGREES
32
root -22.1182 19.4371 0.676051 -0.281345 -86.5369 7.39097
lowerback -12.697 0.757707 -1.73348
upperback 4.89904 1.50017 -1.7291
thorax 12.5478 0.641981 -0.573936
lowerneck -2.09843 -2.86372 5.17486
upperneck 5.04698 -3.87927 -3.4246
head 1.78013 -1.9232 -2.06112
rclavicle 8.94531e-016 -2.14687e-014
rhumerus -44.1983 -20.5634 -85.3777
rradius 58.3191
rwrist -9.29667
rhand -13.6041 8.16479
rfingers 7.12502
rthumb 12.5108 -21.4407
lclavicle 8.94531e-016 -2.14687e-014
lhumerus -40.9331 41.7892 57.973
lradius 13.7467
lwrist -73.7862
lhand -21.6213 -9.45639
lfingers 7.12502
lthumb 4.7744 20.4698
rfemur -13.0098 -15.1884 15.98
rtibia 24.7283
rfoot -11.4275 18.4091
rtoes 0.510945
lfemur -13.0066 16.5055 -17.331
ltibia 24.0333
lfoot -8.88024 -19.1471
ltoes 0.352809
33
root -22.1212 19.4365 0.677485 -0.134775 -86.5825 7.24339
lowerback -12.769 0.767236 -1.75939
upperback 4.89484 1.52572 -1.78449
thorax 12.5881 0.654195 -0.613545
lowerneck -2.08825 -2.92399 5.03368
upperneck 5.05914 -3.95554 -3.38624
head 1.78132 -1.96289 -2.02445
rclavicle 4.57205e-015 -8.74653e-015
rhumerus -44.8959 -20.7816 -85.4664
rradius 61.9737
rwrist -9.96422
rhand -13.3686 8.42277
rfingers 7.12502
rthumb 12.7379 -21.1687
lclavicle 4.57205e-015 -8.74653e-015
lhumerus -40.3964 41.0708 58.8218
lradius 13.7953
lwrist -72.063
lhand -21.576 -9.58807
lfingers 7.12502
lthumb 4.81816 20.3371
rfemur -13.0049 -15.2447 15.9861
rtibia 24.7223
rfoot -11.3723 18.5108
rtoes 0.669137
lfemur -12.9911 16.4283 -17.3156
ltibia 24.0438
lfoot -8.94636 -19.035
ltoes 0.250723
34
root -22.124 19.436 0.678716 0.273475 -86.6347 6.82779
lowerback -12.842 0.769722 -1.77865
upperback 4.89134 1.54026 -1.83563
thorax 12.6297 0.661554 -0.654812
lowerneck -2.05226 -2.98294 4.89728
upperneck 5.05856 -4.02937 -3.34439
head 1.77402 -2.00116 -1.98659
rclavicle -1.5704e-014 3.26007e-014
rhumerus -45.4815 -20.9603 -85.5805
rradius 65.6211
rwrist -10.5846
rhand -13.2259 8.84424
rfingers 7.12502
rthumb 12.8754 -20.7386
lclavicle -1.5704e-014 3.26007e-014
lhumerus -39.9877 40.5822 59.4596
lradius 13.8434
lwrist -70.4617
lhand -21.3569 -9.74309
lfingers 7.12502
lthumb 5.02977 20.1772
rfemur -12.9948 -15.3124 16.0121
rtibia 24.7152
rfoot -11.3298 18.6173
rtoes 0.630778
lfemur -12.9734 16.4027 -17.2824
ltibia 24.0549
lfoot -8.9942 -18.9804
ltoes 0.17664
35
root -22.1261 19.4354 0.679632 0.441169 -86.6736 6.64434
lowerback -12.9072 0.773456 -1.81131
upperback 4.89833 1.56008 -1.89917
thorax 12.679 0.670723 -0.701138
lowerneck -2.05509 -3.03826 4.79357
upperneck 5.07673 -4.10049 -3.31853
head 1.77923 -2.0379 -1.96121
rclavicle 1.78906e-014 -1.66979e-014
rhumerus -45.9279 -21.0549 -85.756
rradius 69.254
rwrist -11.1493
rhand -13.2892 9.40348
rfingers 7.12502
rthumb 12.8144 -20.1832
lclavicle 1.78906e-014 -1.66979e-014
lhumerus -39.5099 40.0045 60.1743
lradius 13.8912
lwrist -68.6881
lhand -21.0676 -9.85222
lfingers 7.12502
lthumb 5.30911 20.0613
rfemur -12.9685 -15.3288 16.0163
rtibia 24.7121
rfoot -11.3039 18.6747
rtoes 0.749421
lfemur -12.9426 16.3245 -17.2605
ltibia 24.0628
lfoot -9.05602 -18.8737
ltoes 0.0866962
